<svg width="20" height="20" viewBox="0 0 20 20" fill="none" xmlns="http://www.w3.org/2000/svg">
<path d="M7.57481 7.49983C7.77073 6.94289 8.15744 6.47325 8.66644 6.17411C9.17544 5.87496 9.77389 5.76561 10.3558 5.86542C10.9377 5.96523 11.4655 6.26777 11.8457 6.71944C12.2259 7.17111 12.434 7.74276 12.4331 8.33316C12.4331 9.99983 9.93314 10.8332 9.93314 10.8332M9.99984 14.1665H10.0082M1.6665 7.10212V12.8976C1.6665 13.1014 1.6665 13.2033 1.68953 13.2992C1.70994 13.3842 1.74361 13.4655 1.7893 13.5401C1.84084 13.6242 1.9129 13.6962 2.05703 13.8404L6.15931 17.9426C6.30344 18.0868 6.3755 18.1588 6.4596 18.2104C6.53416 18.2561 6.61545 18.2897 6.70048 18.3101C6.79638 18.3332 6.8983 18.3332 7.10212 18.3332H12.8976C13.1014 18.3332 13.2033 18.3332 13.2992 18.3101C13.3842 18.2897 13.4655 18.2561 13.5401 18.2104C13.6242 18.1588 13.6962 18.0868 13.8404 17.9426L17.9426 13.8404C18.0868 13.6962 18.1588 13.6242 18.2104 13.5401C18.2561 13.4655 18.2897 13.3842 18.3101 13.2992C18.3332 13.2033 18.3332 13.1014 18.3332 12.8976V7.10212C18.3332 6.8983 18.3332 6.79638 18.3101 6.70048C18.2897 6.61545 18.2561 6.53416 18.2104 6.4596C18.1588 6.3755 18.0868 6.30344 17.9426 6.15931L13.8404 2.05703C13.6962 1.9129 13.6242 1.84084 13.5401 1.7893C13.4655 1.74361 13.3842 1.70994 13.2992 1.68953C13.2033 1.6665 13.1014 1.6665 12.8976 1.6665H7.10212C6.8983 1.6665 6.79638 1.6665 6.70048 1.68953C6.61545 1.70994 6.53416 1.74361 6.4596 1.7893C6.3755 1.84084 6.30344 1.9129 6.15931 2.05703L2.05703 6.15931C1.9129 6.30344 1.84084 6.3755 1.7893 6.4596C1.74361 6.53416 1.70994 6.61545 1.68953 6.70048C1.6665 6.79638 1.6665 6.8983 1.6665 7.10212Z" stroke="#1F1D1D" stroke-width="1.25" stroke-linecap="square"/>
</svg>
