<svg width="64" height="64" viewBox="0 0 64 64" fill="none" xmlns="http://www.w3.org/2000/svg">
<path d="M32.0002 53.3333H13.8668C10.8799 53.3333 9.38641 53.3333 8.24555 52.752C7.24202 52.2407 6.42612 51.4248 5.91479 50.4212C5.3335 49.2804 5.3335 47.7869 5.3335 44.8V19.2C5.3335 16.213 5.3335 14.7195 5.91479 13.5787C6.42612 12.5751 7.24202 11.7592 8.24555 11.2479C9.38641 10.6666 10.8799 10.6666 13.8668 10.6666H14.9335C20.9074 10.6666 23.8943 10.6666 26.1761 11.8292C28.1831 12.8519 29.8149 14.4837 30.8376 16.4907C32.0002 18.7725 32.0002 21.7594 32.0002 27.7333M32.0002 53.3333V27.7333M32.0002 53.3333H50.1335C53.1204 53.3333 54.6139 53.3333 55.7548 52.752C56.7583 52.2407 57.5742 51.4248 58.0855 50.4212C58.6668 49.2804 58.6668 47.7869 58.6668 44.8V19.2C58.6668 16.213 58.6668 14.7195 58.0855 13.5787C57.5742 12.5751 56.7583 11.7592 55.7548 11.2479C54.6139 10.6666 53.1204 10.6666 50.1335 10.6666H49.0668C43.0929 10.6666 40.106 10.6666 37.8243 11.8292C35.8172 12.8519 34.1854 14.4837 33.1628 16.4907C32.0002 18.7725 32.0002 21.7594 32.0002 27.7333" stroke="#282FFB" stroke-width="3" stroke-linecap="square"/>
</svg>
