<svg width="64" height="64" viewBox="0 0 64 64" fill="none" xmlns="http://www.w3.org/2000/svg">
<path d="M8 20.8C8 16.3196 8 14.0794 8.87195 12.3681C9.63893 10.8628 10.8628 9.63893 12.3681 8.87195C14.0794 8 16.3196 8 20.8 8H43.2C47.6804 8 49.9206 8 51.6319 8.87195C53.1372 9.63893 54.3611 10.8628 55.1281 12.3681C56 14.0794 56 16.3196 56 20.8V43.2C56 47.6804 56 49.9206 55.1281 51.6319C54.3611 53.1372 53.1372 54.3611 51.6319 55.1281C49.9206 56 47.6804 56 43.2 56H20.8C16.3196 56 14.0794 56 12.3681 55.1281C10.8628 54.3611 9.63893 53.1372 8.87195 51.6319C8 49.9206 8 47.6804 8 43.2V20.8Z" stroke="#282FFB" stroke-width="3" stroke-linecap="square"/>
<path d="M36.8889 19.4667C36.8889 18.7199 36.8889 18.3466 36.7436 18.0613C36.6157 17.8105 36.4118 17.6065 36.1609 17.4787C35.8757 17.3333 35.5023 17.3333 34.7556 17.3333H29.2444C28.4977 17.3333 28.1243 17.3333 27.8391 17.4787C27.5882 17.6065 27.3843 17.8105 27.2564 18.0613C27.1111 18.3466 27.1111 18.7199 27.1111 19.4667V24.9778C27.1111 25.7245 27.1111 26.0979 26.9658 26.3831C26.838 26.634 26.634 26.838 26.3831 26.9658C26.0979 27.1111 25.7245 27.1111 24.9778 27.1111H19.4667C18.7199 27.1111 18.3466 27.1111 18.0613 27.2564C17.8105 27.3843 17.6065 27.5882 17.4787 27.8391C17.3333 28.1243 17.3333 28.4977 17.3333 29.2444V34.7556C17.3333 35.5023 17.3333 35.8757 17.4787 36.1609C17.6065 36.4118 17.8105 36.6157 18.0613 36.7436C18.3466 36.8889 18.7199 36.8889 19.4667 36.8889H24.9778C25.7245 36.8889 26.0979 36.8889 26.3831 37.0342C26.634 37.162 26.838 37.366 26.9658 37.6169C27.1111 37.9021 27.1111 38.2755 27.1111 39.0222V44.5333C27.1111 45.2801 27.1111 45.6534 27.2564 45.9387C27.3843 46.1895 27.5882 46.3935 27.8391 46.5213C28.1243 46.6667 28.4977 46.6667 29.2444 46.6667H34.7556C35.5023 46.6667 35.8757 46.6667 36.1609 46.5213C36.4118 46.3935 36.6157 46.1895 36.7436 45.9387C36.8889 45.6534 36.8889 45.2801 36.8889 44.5333V39.0222C36.8889 38.2755 36.8889 37.9021 37.0342 37.6169C37.162 37.366 37.366 37.162 37.6169 37.0342C37.9021 36.8889 38.2755 36.8889 39.0222 36.8889H44.5333C45.2801 36.8889 45.6534 36.8889 45.9387 36.7436C46.1895 36.6157 46.3935 36.4118 46.5213 36.1609C46.6667 35.8757 46.6667 35.5023 46.6667 34.7556V29.2444C46.6667 28.4977 46.6667 28.1243 46.5213 27.8391C46.3935 27.5882 46.1895 27.3843 45.9387 27.2564C45.6534 27.1111 45.2801 27.1111 44.5333 27.1111H39.0222C38.2755 27.1111 37.9021 27.1111 37.6169 26.9658C37.366 26.838 37.162 26.634 37.0342 26.3831C36.8889 26.0979 36.8889 25.7245 36.8889 24.9778V19.4667Z" stroke="#282FFB" stroke-width="3" stroke-linecap="square"/>
</svg>
