<svg width="64" height="64" viewBox="0 0 64 64" fill="none" xmlns="http://www.w3.org/2000/svg">
<path d="M55.9999 56H34.6666M6.6665 57.3334L21.4646 51.6418C22.4111 51.2778 22.8843 51.0958 23.3271 50.8581C23.7204 50.647 24.0953 50.4033 24.4479 50.1297C24.845 49.8216 25.2035 49.463 25.9206 48.746L55.9999 18.6667C58.9454 15.7212 58.9454 10.9456 55.9999 8.00003C53.0544 5.05452 48.2788 5.05451 45.3332 8.00003L15.2539 38.0793C14.5368 38.7964 14.1783 39.1549 13.8702 39.5519C13.5966 39.9046 13.3529 40.2795 13.1418 40.6728C12.9041 41.1156 12.7221 41.5888 12.3581 42.5353L6.6665 57.3334ZM6.6665 57.3334L12.1548 43.0639C12.5476 42.0428 12.7439 41.5323 13.0807 41.2984C13.3751 41.094 13.7393 41.0167 14.0913 41.0839C14.4941 41.1609 14.8809 41.5477 15.6545 42.3213L21.6787 48.3455C22.4523 49.1191 22.8391 49.5059 22.916 49.9087C22.9832 50.2606 22.9059 50.6249 22.7016 50.9192C22.4677 51.256 21.9571 51.4524 20.936 51.8451L6.6665 57.3334Z" stroke="#282FFB" stroke-width="3" stroke-linecap="square"/>
</svg>
