<svg width="16" height="17" viewBox="0 0 16 17" fill="none" xmlns="http://www.w3.org/2000/svg">
<path d="M11.3332 7.83333V5.83333C11.3332 3.99238 9.84079 2.5 7.99984 2.5C6.15889 2.5 4.6665 3.99238 4.6665 5.83333V7.83333M5.8665 14.5H10.1332C11.2533 14.5 11.8133 14.5 12.2412 14.282C12.6175 14.0903 12.9234 13.7843 13.1152 13.408C13.3332 12.9802 13.3332 12.4201 13.3332 11.3V11.0333C13.3332 9.91323 13.3332 9.35318 13.1152 8.92535C12.9234 8.54903 12.6175 8.24307 12.2412 8.05132C11.8133 7.83333 11.2533 7.83333 10.1332 7.83333H5.8665C4.7464 7.83333 4.18635 7.83333 3.75852 8.05132C3.3822 8.24307 3.07624 8.54903 2.88449 8.92535C2.6665 9.35318 2.6665 9.91323 2.6665 11.0333V11.3C2.6665 12.4201 2.6665 12.9802 2.88449 13.408C3.07624 13.7843 3.3822 14.0903 3.75852 14.282C4.18635 14.5 4.7464 14.5 5.8665 14.5Z" stroke="#1F1D1D" stroke-width="1.25" stroke-linecap="square"/>
</svg>
