<svg width="16" height="15" viewBox="0 0 16 15" fill="none" xmlns="http://www.w3.org/2000/svg">
<path d="M9.1628 1.25576L14.1815 4.5179C14.3588 4.63317 14.4475 4.6908 14.5117 4.76768C14.5686 4.83574 14.6113 4.91445 14.6374 4.99922C14.6668 5.09498 14.6668 5.20073 14.6668 5.41224V10.3C14.6668 11.4201 14.6668 11.9802 14.4488 12.408C14.2571 12.7843 13.9511 13.0903 13.5748 13.2821C13.147 13.5 12.5869 13.5 11.4668 13.5H4.5335C3.41339 13.5 2.85334 13.5 2.42552 13.2821C2.04919 13.0903 1.74323 12.7843 1.55148 12.408C1.3335 11.9802 1.3335 11.4201 1.3335 10.3V5.41224C1.3335 5.20073 1.3335 5.09498 1.36294 4.99922C1.38901 4.91445 1.43173 4.83574 1.48859 4.76768C1.55284 4.6908 1.64151 4.63317 1.81884 4.5179L6.83752 1.25576M9.1628 1.25576C8.74198 0.982221 8.53156 0.845452 8.30485 0.792237C8.10445 0.745198 7.89588 0.745198 7.69548 0.792237C7.46876 0.845452 7.25835 0.982222 6.83752 1.25576M9.1628 1.25576L13.2909 3.93904C13.7495 4.2371 13.9788 4.38614 14.0582 4.57514C14.1276 4.7403 14.1276 4.92645 14.0582 5.09162C13.9788 5.28061 13.7495 5.42965 13.2909 5.72772L9.1628 8.41099C8.74198 8.68453 8.53156 8.8213 8.30485 8.87452C8.10445 8.92155 7.89588 8.92155 7.69548 8.87452C7.46876 8.8213 7.25835 8.68453 6.83752 8.41099L2.7094 5.72772C2.25084 5.42965 2.02156 5.28061 1.94215 5.09162C1.87275 4.92645 1.87275 4.7403 1.94215 4.57514C2.02156 4.38614 2.25084 4.2371 2.7094 3.93904L6.83752 1.25576M14.3335 12.1667L9.90495 8.16671M6.09538 8.16671L1.66683 12.1667" stroke="#1F1D1D" stroke-width="1.25" stroke-linecap="square"/>
</svg>
